<svg aria-hidden="true" style="position: absolute; width: 0; height: 0; overflow: hidden;" version="1.1" xmlns="http://www.w3.org/2000/svg" xmlns:xlink="http://www.w3.org/1999/xlink">
<defs>
<symbol id="icon-facebook" viewBox="0 0 12 32">
<path fill="#fcf9f9" style="fill: var(--color1, #fcf9f9)" d="M10.788 1.615c0.32 0 0.64 0 1.28 0v4.8c-0.32 0-0.96 0-1.6 0s-1.28 0-1.6 0.32c-0.32 0.32-0.32 0.64-0.32 1.387 0 0.64 0 1.067 0 1.707h3.52v4.053h-3.52v17.6h-5.44v-17.707h-2.88v-4.053h2.88v-1.387c0-2.347 0.32-4.053 0.96-4.8 0.96-1.387 2.88-2.027 5.76-2.027 0.32 0.107 0.64 0.107 0.96 0.107z"></path>
</symbol>
<symbol id="icon-instagram" viewBox="0 0 32 32">
<path fill="#fcf9f9" style="fill: var(--color1, #fcf9f9)" d="M30.837 9.882c-0.018-1.253-0.251-2.497-0.695-3.669-0.778-2.002-2.362-3.585-4.367-4.36-1.159-0.435-2.385-0.669-3.625-0.695-1.596-0.071-2.101-0.091-6.151-0.091s-4.569 0-6.153 0.091c-1.239 0.026-2.465 0.26-3.624 0.695-2.005 0.775-3.591 2.358-4.367 4.36-0.436 1.157-0.672 2.381-0.695 3.618-0.071 1.595-0.093 2.1-0.093 6.143s0 4.56 0.093 6.143c0.025 1.239 0.259 2.46 0.695 3.621 0.778 2 2.362 3.583 4.369 4.358 1.154 0.45 2.38 0.705 3.624 0.745 1.597 0.071 2.103 0.093 6.153 0.093s4.569 0 6.153-0.093c1.239-0.025 2.465-0.258 3.626-0.694 2.005-0.777 3.589-2.359 4.367-4.36 0.436-1.159 0.67-2.381 0.695-3.621 0.071-1.593 0.093-2.098 0.093-6.143-0.003-4.043-0.003-4.557-0.096-6.141zM15.988 23.62c-4.236 0-7.667-3.426-7.667-7.655s3.431-7.655 7.667-7.655c4.233 0 7.667 3.426 7.667 7.655s-3.435 7.655-7.667 7.655zM23.961 9.812c-0.99 0-1.788-0.798-1.788-1.785s0.798-1.785 1.788-1.785c0.987 0 1.786 0.798 1.786 1.785s-0.799 1.785-1.786 1.785z"></path>
</symbol>
<symbol id="icon-youtube" viewBox="0 0 46 32">
<path fill="#fcf9f9" style="fill: var(--color1, #fcf9f9)" d="M35.929 0.444c-2.116-0.124-6.471-0.249-13.067-0.249h-0.871c-6.347 0-10.578 0.124-12.693 0.373-2.862 0.249-4.853 0.996-5.973 1.991-0.996 0.871-1.742 2.489-1.991 4.604-0.124 1.369-0.249 4.231-0.249 8.587v0.622c0 4.107 0.124 6.969 0.373 8.338 0.373 1.991 0.996 3.484 2.24 4.356 1.244 0.996 3.36 1.618 6.347 1.867 2.116 0.124 6.471 0.249 13.067 0.249h0.871c6.347 0 10.578-0.124 12.693-0.373 2.862-0.249 4.853-0.996 5.973-1.991 0.996-0.871 1.742-2.489 1.991-4.604 0.124-1.369 0.249-4.231 0.249-8.587v-0.622c0-4.107-0.124-6.969-0.373-8.338-0.373-1.991-0.996-3.484-2.24-4.356-1.244-0.996-3.36-1.618-6.347-1.867zM31.075 15.751l-13.689 8.213v-16.427l13.689 8.213z"></path>
</symbol>
</defs>
</svg>
