<svg aria-hidden="true" style="position: absolute; width: 0; height: 0; overflow: hidden;" version="1.1" xmlns="http://www.w3.org/2000/svg" xmlns:xlink="http://www.w3.org/1999/xlink">
<defs>
<symbol id="icon-facebook" viewBox="0 0 12 32">
<path fill="#fcf9f9" style="fill: var(--color1, #fcf9f9)" d="M10.788 1.615c0.32 0 0.64 0 1.28 0v4.8c-0.32 0-0.96 0-1.6 0s-1.28 0-1.6 0.32c-0.32 0.32-0.32 0.64-0.32 1.387 0 0.64 0 1.067 0 1.707h3.52v4.053h-3.52v17.6h-5.44v-17.707h-2.88v-4.053h2.88v-1.387c0-2.347 0.32-4.053 0.96-4.8 0.96-1.387 2.88-2.027 5.76-2.027 0.32 0.107 0.64 0.107 0.96 0.107z"></path>
</symbol>
<symbol id="icon-instagram" viewBox="0 0 32 32">
<path fill="#fcf9f9" style="fill: var(--color1, #fcf9f9)" d="M30.837 9.882c-0.018-1.253-0.251-2.497-0.695-3.669-0.778-2.002-2.362-3.585-4.367-4.36-1.159-0.435-2.385-0.669-3.625-0.695-1.596-0.071-2.101-0.091-6.151-0.091s-4.569 0-6.153 0.091c-1.239 0.026-2.465 0.26-3.624 0.695-2.005 0.775-3.591 2.358-4.367 4.36-0.436 1.157-0.672 2.381-0.695 3.618-0.071 1.595-0.093 2.1-0.093 6.143s0 4.56 0.093 6.143c0.025 1.239 0.259 2.46 0.695 3.621 0.778 2 2.362 3.583 4.369 4.358 1.154 0.45 2.38 0.705 3.624 0.745 1.597 0.071 2.103 0.093 6.153 0.093s4.569 0 6.153-0.093c1.239-0.025 2.465-0.258 3.626-0.694 2.005-0.777 3.589-2.359 4.367-4.36 0.436-1.159 0.67-2.381 0.695-3.621 0.071-1.593 0.093-2.098 0.093-6.143-0.003-4.043-0.003-4.557-0.096-6.141zM15.988 23.62c-4.236 0-7.667-3.426-7.667-7.655s3.431-7.655 7.667-7.655c4.233 0 7.667 3.426 7.667 7.655s-3.435 7.655-7.667 7.655zM23.961 9.812c-0.99 0-1.788-0.798-1.788-1.785s0.798-1.785 1.788-1.785c0.987 0 1.786 0.798 1.786 1.785s-0.799 1.785-1.786 1.785z"></path>
</symbol>
<symbol id="icon-youtube" viewBox="0 0 46 32">
<path fill="#fcf9f9" style="fill: var(--color1, #fcf9f9)" d="M35.929 0.444c-2.116-0.124-6.471-0.249-13.067-0.249h-0.871c-6.347 0-10.578 0.124-12.693 0.373-2.862 0.249-4.853 0.996-5.973 1.991-0.996 0.871-1.742 2.489-1.991 4.604-0.124 1.369-0.249 4.231-0.249 8.587v0.622c0 4.107 0.124 6.969 0.373 8.338 0.373 1.991 0.996 3.484 2.24 4.356 1.244 0.996 3.36 1.618 6.347 1.867 2.116 0.124 6.471 0.249 13.067 0.249h0.871c6.347 0 10.578-0.124 12.693-0.373 2.862-0.249 4.853-0.996 5.973-1.991 0.996-0.871 1.742-2.489 1.991-4.604 0.124-1.369 0.249-4.231 0.249-8.587v-0.622c0-4.107-0.124-6.969-0.373-8.338-0.373-1.991-0.996-3.484-2.24-4.356-1.244-0.996-3.36-1.618-6.347-1.867zM31.075 15.751l-13.689 8.213v-16.427l13.689 8.213z"></path>
</symbol>
<symbol id="icon-close-icon" viewBox="0 0 32 32">
<path stroke-linejoin="round" stroke-linecap="round" stroke-miterlimit="4" stroke-width="1.7778" d="M24 8l-16 16"></path>
<path stroke-linejoin="round" stroke-linecap="round" stroke-miterlimit="4" stroke-width="1.7778" d="M8 8l16 16"></path>
</symbol>
<symbol id="icon-logo" viewBox="0 0 35 32">
<path fill="#ecd979" style="fill: var(--color1, #ecd979)" d="M15.392 11.53h-1.098v-1.113h1.098v1.113z"></path>
<path fill="#ecd979" style="fill: var(--color1, #ecd979)" d="M14.294 11.53h-1.098v-1.113h1.098v1.113z"></path>
<path fill="#ecd979" style="fill: var(--color1, #ecd979)" d="M8.804 11.53h-1.098v-1.113h1.098v1.113z"></path>
<path fill="#ecd979" style="fill: var(--color1, #ecd979)" d="M7.707 11.53h-1.098v-1.113h1.098v1.113z"></path>
<path fill="#ecd979" style="fill: var(--color1, #ecd979)" d="M6.609 11.53h-1.098v-1.113h1.098v1.113z"></path>
<path fill="#ecd979" style="fill: var(--color1, #ecd979)" d="M28.566 10.417h-1.098v-1.113h1.098v1.113z"></path>
<path fill="#ecd979" style="fill: var(--color1, #ecd979)" d="M27.468 10.417h-1.098v-1.113h1.098v1.113z"></path>
<path fill="#ecd979" style="fill: var(--color1, #ecd979)" d="M19.783 10.417h-1.098v-1.113h1.098v1.113z"></path>
<path fill="#ecd979" style="fill: var(--color1, #ecd979)" d="M18.685 10.417h-1.098v-1.113h1.098v1.113z"></path>
<path fill="#ecd979" style="fill: var(--color1, #ecd979)" d="M16.489 10.417h-1.098v-1.113h1.098v1.113z"></path>
<path fill="#ecd979" style="fill: var(--color1, #ecd979)" d="M15.392 10.417h-1.098v-1.113h1.098v1.113z"></path>
<path fill="#ecd979" style="fill: var(--color1, #ecd979)" d="M7.707 10.417h-1.098v-1.113h1.098v1.113z"></path>
<path fill="#ecd979" style="fill: var(--color1, #ecd979)" d="M6.609 10.417h-1.098v-1.113h1.098v1.113z"></path>
<path fill="#ecd979" style="fill: var(--color1, #ecd979)" d="M28.566 9.304h-1.098v-1.113h1.098v1.113z"></path>
<path fill="#ecd979" style="fill: var(--color1, #ecd979)" d="M18.685 9.304h-1.098v-1.113h1.098v1.113z"></path>
<path fill="#ecd979" style="fill: var(--color1, #ecd979)" d="M16.489 9.304h-1.098v-1.113h1.098v1.113z"></path>
<path fill="#ecd979" style="fill: var(--color1, #ecd979)" d="M6.609 9.304h-1.098v-1.113h1.098v1.113z"></path>
<path fill="#ecd979" style="fill: var(--color1, #ecd979)" d="M34.055 8.191h-1.098v-1.113h1.098v1.113z"></path>
<path fill="#ecd979" style="fill: var(--color1, #ecd979)" d="M1.12 8.191h-1.098v-1.113h1.098v1.113z"></path>
<path fill="#ecd979" style="fill: var(--color1, #ecd979)" d="M34.055 7.078h-1.098v-1.113h1.098v1.113z"></path>
<path fill="#ecd979" style="fill: var(--color1, #ecd979)" d="M32.957 7.078h-1.098v-1.113h1.098v1.113z"></path>
<path fill="#ecd979" style="fill: var(--color1, #ecd979)" d="M23.076 7.078h-1.098v-1.113h1.098v1.113z"></path>
<path fill="#ecd979" style="fill: var(--color1, #ecd979)" d="M21.978 7.078h-1.098v-1.113h1.098v1.113z"></path>
<path fill="#ecd979" style="fill: var(--color1, #ecd979)" d="M20.881 7.078h-1.098v-1.113h1.098v1.113z"></path>
<path fill="#ecd979" style="fill: var(--color1, #ecd979)" d="M14.294 7.078h-1.098v-1.113h1.098v1.113z"></path>
<path fill="#ecd979" style="fill: var(--color1, #ecd979)" d="M13.196 7.078h-1.098v-1.113h1.098v1.113z"></path>
<path fill="#ecd979" style="fill: var(--color1, #ecd979)" d="M12.098 7.078h-1.098v-1.113h1.098v1.113z"></path>
<path fill="#ecd979" style="fill: var(--color1, #ecd979)" d="M2.217 7.078h-1.098v-1.113h1.098v1.113z"></path>
<path fill="#ecd979" style="fill: var(--color1, #ecd979)" d="M1.12 7.078h-1.098v-1.113h1.098v1.113z"></path>
<path fill="#ecd979" style="fill: var(--color1, #ecd979)" d="M34.055 5.965h-1.098v-1.113h1.098v1.113z"></path>
<path fill="#ecd979" style="fill: var(--color1, #ecd979)" d="M32.957 5.965h-1.098v-1.113h1.098v1.113z"></path>
<path fill="#ecd979" style="fill: var(--color1, #ecd979)" d="M31.859 5.965h-1.098v-1.113h1.098v1.113z"></path>
<path fill="#ecd979" style="fill: var(--color1, #ecd979)" d="M24.174 5.965h-1.098v-1.113h1.098v1.113z"></path>
<path fill="#ecd979" style="fill: var(--color1, #ecd979)" d="M23.076 5.965h-1.098v-1.113h1.098v1.113z"></path>
<path fill="#ecd979" style="fill: var(--color1, #ecd979)" d="M21.978 5.965h-1.098v-1.113h1.098v1.113z"></path>
<path fill="#ecd979" style="fill: var(--color1, #ecd979)" d="M18.685 5.965h-1.098v-1.113h1.098v1.113z"></path>
<path fill="#ecd979" style="fill: var(--color1, #ecd979)" d="M16.489 5.965h-1.098v-1.113h1.098v1.113z"></path>
<path fill="#ecd979" style="fill: var(--color1, #ecd979)" d="M13.196 5.965h-1.098v-1.113h1.098v1.113z"></path>
<path fill="#ecd979" style="fill: var(--color1, #ecd979)" d="M12.098 5.965h-1.098v-1.113h1.098v1.113z"></path>
<path fill="#ecd979" style="fill: var(--color1, #ecd979)" d="M11 5.965h-1.098v-1.113h1.098v1.113z"></path>
<path fill="#ecd979" style="fill: var(--color1, #ecd979)" d="M3.315 5.965h-1.098v-1.113h1.098v1.113z"></path>
<path fill="#ecd979" style="fill: var(--color1, #ecd979)" d="M2.217 5.965h-1.098v-1.113h1.098v1.113z"></path>
<path fill="#ecd979" style="fill: var(--color1, #ecd979)" d="M1.12 5.965h-1.098v-1.113h1.098v1.113z"></path>
<path fill="#ecd979" style="fill: var(--color1, #ecd979)" d="M32.957 4.852h-1.098v-1.113h1.098v1.113z"></path>
<path fill="#ecd979" style="fill: var(--color1, #ecd979)" d="M31.859 4.852h-1.098v-1.113h1.098v1.113z"></path>
<path fill="#ecd979" style="fill: var(--color1, #ecd979)" d="M30.761 4.852h-1.098v-1.113h1.098v1.113z"></path>
<path fill="#ecd979" style="fill: var(--color1, #ecd979)" d="M25.272 4.852h-1.098v-1.113h1.098v1.113z"></path>
<path fill="#ecd979" style="fill: var(--color1, #ecd979)" d="M24.174 4.852h-1.098v-1.113h1.098v1.113z"></path>
<path fill="#ecd979" style="fill: var(--color1, #ecd979)" d="M23.076 4.852h-1.098v-1.113h1.098v1.113z"></path>
<path fill="#ecd979" style="fill: var(--color1, #ecd979)" d="M19.783 4.852h-1.098v-1.113h1.098v1.113z"></path>
<path fill="#ecd979" style="fill: var(--color1, #ecd979)" d="M18.685 4.852h-1.098v-1.113h1.098v1.113z"></path>
<path fill="#ecd979" style="fill: var(--color1, #ecd979)" d="M16.489 4.852h-1.098v-1.113h1.098v1.113z"></path>
<path fill="#ecd979" style="fill: var(--color1, #ecd979)" d="M15.392 4.852h-1.098v-1.113h1.098v1.113z"></path>
<path fill="#ecd979" style="fill: var(--color1, #ecd979)" d="M12.098 4.852h-1.098v-1.113h1.098v1.113z"></path>
<path fill="#ecd979" style="fill: var(--color1, #ecd979)" d="M11 4.852h-1.098v-1.113h1.098v1.113z"></path>
<path fill="#ecd979" style="fill: var(--color1, #ecd979)" d="M9.902 4.852h-1.098v-1.113h1.098v1.113z"></path>
<path fill="#ecd979" style="fill: var(--color1, #ecd979)" d="M4.413 4.852h-1.098v-1.113h1.098v1.113z"></path>
<path fill="#ecd979" style="fill: var(--color1, #ecd979)" d="M3.315 4.852h-1.098v-1.113h1.098v1.113z"></path>
<path fill="#ecd979" style="fill: var(--color1, #ecd979)" d="M2.217 4.852h-1.098v-1.113h1.098v1.113z"></path>
<path fill="#ecd979" style="fill: var(--color1, #ecd979)" d="M31.859 3.739h-1.098v-1.113h1.098v1.113z"></path>
<path fill="#ecd979" style="fill: var(--color1, #ecd979)" d="M30.761 3.739h-1.098v-1.113h1.098v1.113z"></path>
<path fill="#ecd979" style="fill: var(--color1, #ecd979)" d="M29.664 3.739h-1.098v-1.113h1.098v1.113z"></path>
<path fill="#ecd979" style="fill: var(--color1, #ecd979)" d="M20.881 3.739h-1.098v-1.113h1.098v1.113z"></path>
<path fill="#ecd979" style="fill: var(--color1, #ecd979)" d="M19.783 3.739h-1.098v-1.113h1.098v1.113z"></path>
<path fill="#ecd979" style="fill: var(--color1, #ecd979)" d="M18.685 3.739h-1.098v-1.113h1.098v1.113z"></path>
<path fill="#ecd979" style="fill: var(--color1, #ecd979)" d="M16.489 3.739h-1.098v-1.113h1.098v1.113z"></path>
<path fill="#ecd979" style="fill: var(--color1, #ecd979)" d="M15.392 3.739h-1.098v-1.113h1.098v1.113z"></path>
<path fill="#ecd979" style="fill: var(--color1, #ecd979)" d="M14.294 3.739h-1.098v-1.113h1.098v1.113z"></path>
<path fill="#ecd979" style="fill: var(--color1, #ecd979)" d="M5.511 3.739h-1.098v-1.113h1.098v1.113z"></path>
<path fill="#ecd979" style="fill: var(--color1, #ecd979)" d="M4.413 3.739h-1.098v-1.113h1.098v1.113z"></path>
<path fill="#ecd979" style="fill: var(--color1, #ecd979)" d="M3.315 3.739h-1.098v-1.113h1.098v1.113z"></path>
<path fill="#ecd979" style="fill: var(--color1, #ecd979)" d="M35.153 2.626h-1.098v-1.113h1.098v1.113z"></path>
<path fill="#ecd979" style="fill: var(--color1, #ecd979)" d="M30.761 2.626h-1.098v-1.113h1.098v1.113z"></path>
<path fill="#ecd979" style="fill: var(--color1, #ecd979)" d="M29.664 2.626h-1.098v-1.113h1.098v1.113z"></path>
<path fill="#ecd979" style="fill: var(--color1, #ecd979)" d="M28.566 2.626h-1.098v-1.113h1.098v1.113z"></path>
<path fill="#ecd979" style="fill: var(--color1, #ecd979)" d="M20.881 2.626h-1.098v-1.113h1.098v1.113z"></path>
<path fill="#ecd979" style="fill: var(--color1, #ecd979)" d="M19.783 2.626h-1.098v-1.113h1.098v1.113z"></path>
<path fill="#ecd979" style="fill: var(--color1, #ecd979)" d="M15.392 2.626h-1.098v-1.113h1.098v1.113z"></path>
<path fill="#ecd979" style="fill: var(--color1, #ecd979)" d="M14.294 2.626h-1.098v-1.113h1.098v1.113z"></path>
<path fill="#ecd979" style="fill: var(--color1, #ecd979)" d="M6.609 2.626h-1.098v-1.113h1.098v1.113z"></path>
<path fill="#ecd979" style="fill: var(--color1, #ecd979)" d="M5.511 2.626h-1.098v-1.113h1.098v1.113z"></path>
<path fill="#ecd979" style="fill: var(--color1, #ecd979)" d="M4.413 2.626h-1.098v-1.113h1.098v1.113z"></path>
<path fill="#ecd979" style="fill: var(--color1, #ecd979)" d="M35.153 1.513h-1.098v-1.113h1.098v1.113z"></path>
<path fill="#ecd979" style="fill: var(--color1, #ecd979)" d="M34.055 1.513h-1.098v-1.113h1.098v1.113z"></path>
<path fill="#ecd979" style="fill: var(--color1, #ecd979)" d="M29.664 1.513h-1.098v-1.113h1.098v1.113z"></path>
<path fill="#ecd979" style="fill: var(--color1, #ecd979)" d="M28.566 1.513h-1.098v-1.113h1.098v1.113z"></path>
<path fill="#ecd979" style="fill: var(--color1, #ecd979)" d="M27.468 1.513h-1.098v-1.113h1.098v1.113z"></path>
<path fill="#ecd979" style="fill: var(--color1, #ecd979)" d="M20.881 1.513h-1.098v-1.113h1.098v1.113z"></path>
<path fill="#ecd979" style="fill: var(--color1, #ecd979)" d="M14.294 1.513h-1.098v-1.113h1.098v1.113z"></path>
<path fill="#ecd979" style="fill: var(--color1, #ecd979)" d="M7.707 1.513h-1.098v-1.113h1.098v1.113z"></path>
<path fill="#ecd979" style="fill: var(--color1, #ecd979)" d="M6.609 1.513h-1.098v-1.113h1.098v1.113z"></path>
<path fill="#ecd979" style="fill: var(--color1, #ecd979)" d="M5.511 1.513h-1.098v-1.113h1.098v1.113z"></path>
<path fill="#ecd979" style="fill: var(--color1, #ecd979)" d="M1.12 1.513h-1.098v-1.113h1.098v1.113z"></path>
</symbol>
</defs>
</svg>
